<svg width="180" height="39" viewBox="0 0 180 39" fill="none" xmlns="http://www.w3.org/2000/svg">
<g clip-path="url(#clip0_440_2561)">
<path d="M99.1798 3.58972C108.308 3.58972 115.59 10.9231 115.59 20.0513C115.59 29.1795 108.308 36.4615 99.1798 36.4615C90.0516 36.4615 82.7695 29.1795 82.7695 20.0513C82.7695 10.9231 90.0516 3.58972 99.1798 3.58972ZM99.1798 30.5128C104.923 30.5128 109.693 25.7949 109.693 20.0513C109.693 14.3077 104.923 9.48716 99.1798 9.48716C93.4362 9.48716 88.7183 14.2564 88.7183 20.0513C88.7183 25.7949 93.4362 30.5128 99.1798 30.5128Z" fill="#122023"/>
<path d="M116.257 5.23076C116.001 4.61537 116.36 4.05127 117.026 4.05127H121.693C122.103 4.05127 122.36 4.30768 122.462 4.56409L131.231 24.2051H131.539L140.308 4.56409C140.411 4.35896 140.667 4.05127 141.078 4.05127H145.744C146.411 4.05127 146.77 4.66665 146.513 5.23076L132.36 35.9487C132.206 36.2051 132.001 36.4615 131.59 36.4615H131.129C130.719 36.4615 130.513 36.2564 130.36 35.9487L116.257 5.23076Z" fill="#122023"/>
<path d="M163.539 3.58972C172.667 3.58972 179.949 10.9231 179.949 20.0513C179.949 29.1795 172.667 36.4615 163.539 36.4615C154.411 36.4615 147.129 29.1795 147.129 20.0513C147.18 10.9231 154.411 3.58972 163.539 3.58972ZM163.539 30.5128C169.283 30.5128 174.052 25.7949 174.052 20.0513C174.052 14.3077 169.283 9.48716 163.539 9.48716C157.796 9.48716 153.078 14.2564 153.078 20.0513C153.129 25.7949 157.796 30.5128 163.539 30.5128Z" fill="#122023"/>
<path d="M37.5897 36.1538C37.1282 36.1538 36.7179 35.7949 36.7179 35.282V17.9487C36.7179 12.7179 33.4871 9.33333 28.4615 9.33333C23.4871 9.33333 20.2564 12.7179 20.2564 17.9487V35.282C20.2564 35.7436 19.8461 36.1538 19.3846 36.1538H15.0769C14.6153 36.1538 14.2051 35.7949 14.2051 35.282V17.9487C14.2051 8.71794 19.282 3.64102 28.5128 3.64102C37.7435 3.64102 42.8205 8.76923 42.8205 17.9487V35.282C42.8205 35.7436 42.4102 36.1538 41.9487 36.1538H37.5897Z" fill="#122023"/>
<path d="M72.5643 36.1538C72.1028 36.1538 71.6925 35.7949 71.6925 35.282V17.9487C71.6925 12.7179 68.4617 9.33333 63.4361 9.33333C58.4617 9.33333 55.231 12.7179 55.231 17.9487V35.282C55.231 35.7436 54.8207 36.1538 54.3592 36.1538H50.0515C49.5899 36.1538 49.1797 35.7949 49.1797 35.282V17.9487C49.1797 8.71794 54.2566 3.64102 63.4874 3.64102C72.7182 3.64102 77.7951 8.71794 77.7951 17.9487V35.282C77.7951 35.7436 77.3848 36.1538 76.9233 36.1538H72.5643Z" fill="#122023"/>
<path d="M4.05128 8.05128C6.25641 8.05128 8.10256 6.25641 8.10256 4C8.10256 1.79487 6.30769 -0.0512848 4.05128 -0.0512848C1.79487 -2.73509e-06 0 1.79487 0 4.05128C0 6.25641 1.79487 8.05128 4.05128 8.05128Z" fill="#122023"/>
<path d="M1.02539 12.3077C1.02539 11.8462 1.43565 11.4359 1.89719 11.4359H6.1536C6.61513 11.4359 7.02539 11.8462 7.02539 12.3077V35.2821C7.02539 35.7436 6.61513 36.1538 6.1536 36.1538H1.89719C1.43565 36.1538 1.02539 35.7436 1.02539 35.2821V12.3077Z" fill="#122023"/>
</g>
<defs>
<clipPath id="clip0_440_2561">
<rect width="180" height="39" fill="white"/>
</clipPath>
</defs>
</svg>
